<svg id="Layer_1" data-name="Layer 1" xmlns="http://www.w3.org/2000/svg" xmlns:xlink="http://www.w3.org/1999/xlink" viewBox="0 0 500 500"><defs><style>.cls-1,.cls-10{fill:#ef8321;}.cls-2{opacity:0.42;isolation:isolate;}.cls-10,.cls-3,.cls-4,.cls-5,.cls-6,.cls-7,.cls-9{fill-rule:evenodd;}.cls-3{fill:url(#linear-gradient);}.cls-4{fill:url(#linear-gradient-2);}.cls-5{fill:url(#linear-gradient-3);}.cls-6{fill:url(#linear-gradient-4);}.cls-7{fill:url(#linear-gradient-5);}.cls-8,.cls-9{fill:#fff;}</style><linearGradient id="linear-gradient" x1="322.36" y1="243.36" x2="322.34" y2="243.39" gradientUnits="userSpaceOnUse"><stop offset="0"/><stop offset="1" stop-opacity="0"/></linearGradient><linearGradient id="linear-gradient-2" x1="322.26" y1="243.26" x2="322.26" y2="243.26" xlink:href="#linear-gradient"/><linearGradient id="linear-gradient-3" x1="322.35" y1="243.38" x2="322.34" y2="243.38" xlink:href="#linear-gradient"/><linearGradient id="linear-gradient-4" x1="322.32" y1="243.33" x2="322.31" y2="243.34" xlink:href="#linear-gradient"/><linearGradient id="linear-gradient-5" x1="311.13" y1="171.2" x2="64.39" y2="417.93" xlink:href="#linear-gradient"/></defs><title>podcast_icon</title><circle class="cls-1" cx="250" cy="250" r="250"/><g class="cls-2"><path class="cls-3" d="M322.27,243.28a1.75,1.75,0,0,1,.16.2A.67.67,0,0,0,322.27,243.28Z" transform="translate(0)"/><path class="cls-4" d="M322.25,243.25l0,0h0Z" transform="translate(0)"/><path class="cls-5" d="M322.34,243.37h0l0,0h0Z" transform="translate(0)"/><path class="cls-6" d="M322.27,243.28h0l.09.12h0Z" transform="translate(0)"/><path class="cls-7" d="M322.43,243.48a.71.71,0,0,0-.07-.09h0a.86.86,0,0,1,.07.1.86.86,0,0,0-.07-.1h-.19c-.07,0-.14-.23-.21-.26a1.51,1.51,0,0,0-.94-.25,2.32,2.32,0,0,0-1.66.24h-.21c0,3.16-3.28,4.62-5.54,6.08-4,2.57-7.19,6.11-10.7,9.27-7.68,6.91-15.83,13.27-23.79,19.87a283.43,283.43,0,0,0-22.29,20c-3.18,3.27-7.33,5.3-10.88,8.09-1.31,1-2.47,2.42-4.17,2.79-2.39.53-4.63-.7-6.91-1.18,9.2-7.65,18.12-15.64,27.26-23.36,7.64-6.45,16.22-12.36,21.33-21.2,5.36-9.3,5.5-20.37,5.53-30.8,0-12.14,0-24.28.08-36.42.15-18.48,4-39.66-8.49-55.3-10.85-13.55-31-17.94-46.82-11.21-9.48,4-16.87,11.43-24.39,18.23-8.73,7.89-17.78,15.42-26.73,23.07Q154.8,194.84,127,218.72c-35.73,30.84-70.31,63-107.4,92.29-3.27,2.58-6.68,5.08-10.1,7.59A250.67,250.67,0,0,0,143.07,476c8.57-7.18,17.1-14.39,25.48-21.79q27.3-24.09,54.89-47.83c8.84-7.61,17.77-15.2,27.17-22.14,3.86-2.85,8.18-5.63,10.75-9.8,2.89-4.69,2.28-10.06,2.42-15.3.24-9.11,5.53-16.52,12.12-22.37,8.37-7.41,17.93-13.22,26.44-20.47,21.4-18.24,39-43.87,39-72.94h-19A.71.71,0,0,1,322.43,243.48Zm0,0h0l0,0Z" transform="translate(0)"/></g><path class="cls-8" d="M250,282.62a39.07,39.07,0,0,0,39-39.14l.12-78.29a39.14,39.14,0,0,0-78.28,0v78.29A39.17,39.17,0,0,0,250,282.62Z" transform="translate(0)"/><path class="cls-8" d="M250,310c-36,0-69.15-27.4-69.15-66.54H158.67c0,44.55,35.48,81.35,78.28,87.67V374h26.1v-42.8c42.8-6.32,78.28-43.12,78.28-87.67H319.15C319.15,282.62,286.07,310,250,310Z" transform="translate(0)"/><path class="cls-9" d="M247.53,39.41c-1.34,0-1.91.25-1.9,1.75q.1,11,0,22c0,1.38.37,1.9,1.8,1.91a85.48,85.48,0,0,1,13.75,1.11c29.71,5,53.15,19.91,70,44.85a98.86,98.86,0,0,1,17.09,54.54c0,1.69.5,2.22,2.2,2.16,3.52-.13,7.05,0,10.57,0,3.67,0,7.35-.07,11,0,1.53,0,1.92-.44,1.89-1.95a131.7,131.7,0,0,0-4.61-32.14A128.47,128.47,0,0,0,247.53,39.41Z" transform="translate(0)"/><path class="cls-9" d="M284.77,92.34a79.89,79.89,0,0,0-37.25-9.53c-1,0-1.92-.16-1.91,1.47.09,7.26.06,14.53,0,21.8,0,1.27.48,1.51,1.66,1.55a57.94,57.94,0,0,1,13.22,1.83,60.34,60.34,0,0,1,45.27,56.25c.06,1.6.44,2.1,2.06,2,3.45-.12,6.91,0,10.36,0h0c3.6,0,7.2,0,10.8,0,1.2,0,1.61-.35,1.61-1.59a59.51,59.51,0,0,0-.65-9.25C325.56,127.92,310.57,106.27,284.77,92.34Z" transform="translate(0)"/><path class="cls-9" d="M263.11,132.62a17.55,17.55,0,1,0,17.66,17.52A17.51,17.51,0,0,0,263.11,132.62Z" transform="translate(0)"/><path class="cls-10" d="M249.89,185.28a17.55,17.55,0,1,0,17.67,17.51A17.52,17.52,0,0,0,249.89,185.28Z" transform="translate(0)"/></svg>